<svg width="18" height="18" viewBox="0 0 18 18" fill="none" xmlns="http://www.w3.org/2000/svg">
<path d="M8.96187 10.9043C6.37438 10.9043 4.19116 11.3271 4.19116 12.9589C4.19116 14.5914 6.38848 14.9994 8.96187 14.9994C11.5494 14.9994 13.7326 14.5765 13.7326 12.9447C13.7326 11.3122 11.5353 10.9043 8.96187 10.9043Z" fill="#003E79"/>
<path opacity="0.4" d="M8.96165 9.35027C10.7137 9.35027 12.1186 7.9373 12.1186 6.17514C12.1186 4.4123 10.7137 3 8.96165 3C7.20957 3 5.80469 4.4123 5.80469 6.17514C5.80469 7.9373 7.20957 9.35027 8.96165 9.35027Z" fill="#003E79"/>
<path opacity="0.4" d="M15.8159 6.91381C16.2692 5.13071 14.9402 3.5293 13.2479 3.5293C13.0639 3.5293 12.888 3.54956 12.716 3.58401C12.6932 3.58941 12.6677 3.60089 12.6543 3.62115C12.6388 3.64682 12.6502 3.68127 12.667 3.70355C13.1754 4.42085 13.4675 5.29416 13.4675 6.23164C13.4675 7.12995 13.1996 7.96746 12.7295 8.66247C12.6811 8.73406 12.7241 8.83065 12.8094 8.8455C12.9276 8.86644 13.0485 8.87725 13.172 8.88063C14.4043 8.91305 15.5104 8.11538 15.8159 6.91381Z" fill="#003E79"/>
<path d="M17.1071 11.1124C16.8814 10.6288 16.3368 10.2971 15.5088 10.1343C15.1179 10.0384 14.0602 9.90336 13.0764 9.92159C13.0616 9.92362 13.0536 9.93375 13.0522 9.9405C13.0502 9.94996 13.0542 9.96617 13.0737 9.9763C13.5284 10.2026 15.2858 11.1866 15.0649 13.2622C15.0555 13.352 15.1273 13.4297 15.2166 13.4162C15.6491 13.3541 16.7619 13.1136 17.1071 12.3646C17.2978 11.9688 17.2978 11.5088 17.1071 11.1124Z" fill="#003E79"/>
<path opacity="0.4" d="M5.28356 3.58401C5.11232 3.54888 4.9357 3.5293 4.75169 3.5293C3.05938 3.5293 1.73038 5.13071 2.18435 6.91381C2.48923 8.11538 3.59528 8.91305 4.82758 8.88063C4.95114 8.87725 5.0727 8.86577 5.19022 8.8455C5.2755 8.83065 5.31848 8.73406 5.27013 8.66247C4.80005 7.96679 4.5321 7.12995 4.5321 6.23164C4.5321 5.29349 4.82489 4.42017 5.33326 3.70355C5.34938 3.68127 5.36146 3.64682 5.34535 3.62115C5.33191 3.60022 5.30707 3.58941 5.28356 3.58401Z" fill="#003E79"/>
<path d="M2.49117 10.1338C1.66314 10.2966 1.11919 10.6282 0.893544 11.1118C0.702152 11.5083 0.702152 11.9682 0.893544 12.3647C1.23872 13.1131 2.35148 13.3542 2.78396 13.4156C2.87328 13.4292 2.94446 13.3522 2.93506 13.2616C2.71412 11.1868 4.47157 10.2027 4.92689 9.97642C4.94569 9.96561 4.94972 9.95008 4.9477 9.93995C4.94636 9.93319 4.93897 9.92306 4.9242 9.92171C3.9397 9.9028 2.88268 10.0379 2.49117 10.1338Z" fill="#003E79"/>
</svg>
