<svg width="39" height="19" viewBox="0 0 39 19" fill="none" xmlns="http://www.w3.org/2000/svg">
<mask id="mask0_945_14982" style="mask-type:luminance" maskUnits="userSpaceOnUse" x="9" y="7" width="15" height="12">
<path d="M9.67383 7.17773H23.0456V18.9997H9.67383V7.17773Z" fill="white"/>
</mask>
<g mask="url(#mask0_945_14982)">
<path fill-rule="evenodd" clip-rule="evenodd" d="M11.5709 10.1808C12.6205 9.51424 13.331 8.42857 13.5213 7.20117C15.429 7.81024 17.0682 9.02137 18.2065 10.6296L19.0435 12.0766L19.6577 13.1387L23.0456 18.997C15.1956 18.2682 14.6067 11.9081 9.71875 10.8294C10.3706 10.7589 11.0052 10.5402 11.5709 10.1808Z" fill="#DCDCDC"/>
</g>
<mask id="mask1_945_14982" style="mask-type:luminance" maskUnits="userSpaceOnUse" x="0" y="10" width="15" height="9">
<path d="M0 10.7754H14.9034V18.784H0V10.7754Z" fill="white"/>
</mask>
<g mask="url(#mask1_945_14982)">
<mask id="mask2_945_14982" style="mask-type:luminance" maskUnits="userSpaceOnUse" x="0" y="10" width="15" height="9">
<path fill-rule="evenodd" clip-rule="evenodd" d="M0 18.6762C3.74222 12.2056 2.33797 11.6287 9.71834 10.8281C11.9663 11.3242 13.3175 12.9902 14.8287 14.5732C9.13449 10.4952 7.74077 19.6753 0 18.6762Z" fill="white"/>
</mask>
<g mask="url(#mask2_945_14982)">
<path d="M0 10.4961V18.9982H14.8287V10.4961H0Z" fill="url(#paint0_linear_945_14982)"/>
</g>
</g>
<mask id="mask3_945_14982" style="mask-type:luminance" maskUnits="userSpaceOnUse" x="6" y="0" width="13" height="11">
<path d="M6.15918 0H18.2538V10.692H6.15918V0Z" fill="white"/>
</mask>
<g mask="url(#mask3_945_14982)">
<path fill-rule="evenodd" clip-rule="evenodd" d="M10.8009 0.00195312C12.3306 0.259245 12.9263 1.50101 13.6595 2.76895L18.2059 10.6307C17.0672 9.02248 15.4283 7.81136 13.5207 7.20228C11.0767 6.42243 8.41665 6.7027 6.18945 7.97544L10.8006 0.00195312H10.8009Z" fill="white"/>
</g>
<path d="M18.54 9V2.25H19.638V9H18.54ZM21.8177 11.25H20.7197V4.5H21.8177V5.0715C21.9647 4.8675 22.1447 4.7025 22.3577 4.5765C22.5737 4.4475 22.8257 4.383 23.1137 4.383C23.4437 4.383 23.7512 4.4445 24.0362 4.5675C24.3212 4.6905 24.5717 4.8615 24.7877 5.0805C25.0067 5.2965 25.1762 5.547 25.2962 5.832C25.4192 6.117 25.4807 6.423 25.4807 6.75C25.4807 7.077 25.4192 7.3845 25.2962 7.6725C25.1762 7.9605 25.0067 8.214 24.7877 8.433C24.5717 8.649 24.3212 8.8185 24.0362 8.9415C23.7512 9.0645 23.4437 9.126 23.1137 9.126C22.8257 9.126 22.5737 9.063 22.3577 8.937C22.1447 8.808 21.9647 8.6415 21.8177 8.4375V11.25ZM23.1002 5.4405C22.8722 5.4405 22.6682 5.5005 22.4882 5.6205C22.3082 5.7375 22.1672 5.895 22.0652 6.093C21.9632 6.291 21.9122 6.51 21.9122 6.75C21.9122 6.99 21.9632 7.2105 22.0652 7.4115C22.1672 7.6095 22.3082 7.7685 22.4882 7.8885C22.6682 8.0055 22.8722 8.064 23.1002 8.064C23.3312 8.064 23.5427 8.0055 23.7347 7.8885C23.9267 7.7715 24.0797 7.614 24.1937 7.416C24.3077 7.215 24.3647 6.993 24.3647 6.75C24.3647 6.51 24.3077 6.291 24.1937 6.093C24.0797 5.895 23.9267 5.7375 23.7347 5.6205C23.5457 5.5005 23.3342 5.4405 23.1002 5.4405ZM30.2382 6.156V9H29.1402V6.444C29.1402 6.267 29.0967 6.1065 29.0097 5.9625C28.9227 5.8155 28.8057 5.7 28.6587 5.616C28.5147 5.529 28.3542 5.4855 28.1772 5.4855C28.0002 5.4855 27.8382 5.529 27.6912 5.616C27.5472 5.7 27.4317 5.8155 27.3447 5.9625C27.2607 6.1065 27.2187 6.267 27.2187 6.444V9H26.1207L26.1162 2.25H27.2142L27.2187 4.9005C27.3717 4.7385 27.5547 4.611 27.7677 4.518C27.9807 4.422 28.2102 4.374 28.4562 4.374C28.7832 4.374 29.0817 4.455 29.3517 4.617C29.6217 4.776 29.8362 4.9905 29.9952 5.2605C30.1572 5.5275 30.2382 5.826 30.2382 6.156ZM34.4398 4.5H35.5378V9H34.4398L34.3903 8.442C34.2673 8.643 34.1038 8.8065 33.8998 8.9325C33.6988 9.0555 33.4603 9.117 33.1843 9.117C32.8513 9.117 32.5393 9.054 32.2483 8.928C31.9573 8.802 31.7008 8.628 31.4788 8.406C31.2598 8.184 31.0873 7.9275 30.9613 7.6365C30.8383 7.3455 30.7768 7.0335 30.7768 6.7005C30.7768 6.3795 30.8353 6.078 30.9523 5.796C31.0723 5.514 31.2388 5.2665 31.4518 5.0535C31.6648 4.8405 31.9108 4.674 32.1898 4.554C32.4688 4.434 32.7688 4.374 33.0898 4.374C33.3868 4.374 33.6523 4.44 33.8863 4.572C34.1233 4.704 34.3243 4.872 34.4893 5.076L34.4398 4.5ZM33.1573 8.0595C33.3913 8.0595 33.5983 8.001 33.7783 7.884C33.9583 7.767 34.0993 7.6095 34.2013 7.4115C34.3033 7.2105 34.3543 6.99 34.3543 6.75C34.3543 6.507 34.3033 6.2865 34.2013 6.0885C34.0993 5.8875 33.9568 5.7285 33.7738 5.6115C33.5938 5.4945 33.3883 5.436 33.1573 5.436C32.9263 5.436 32.7148 5.496 32.5228 5.616C32.3338 5.733 32.1823 5.8905 32.0683 6.0885C31.9573 6.2865 31.9018 6.507 31.9018 6.75C31.9018 6.993 31.9588 7.2135 32.0728 7.4115C32.1868 7.6095 32.3383 7.767 32.5273 7.884C32.7193 8.001 32.9293 8.0595 33.1573 8.0595Z" fill="white"/>
<path d="M31.3 14V10.5H32.575C32.76 10.5 32.9267 10.5383 33.075 10.615C33.225 10.69 33.3433 10.7983 33.43 10.94C33.5183 11.08 33.5625 11.2458 33.5625 11.4375C33.5625 11.5225 33.55 11.6083 33.525 11.695C33.5 11.7817 33.4617 11.86 33.41 11.93C33.3583 11.9983 33.2917 12.0492 33.21 12.0825C33.3183 12.1092 33.4067 12.1575 33.475 12.2275C33.5433 12.2975 33.5967 12.38 33.635 12.475C33.6733 12.5683 33.6992 12.6642 33.7125 12.7625C33.7275 12.8592 33.735 12.9492 33.735 13.0325C33.735 13.2175 33.6892 13.3825 33.5975 13.5275C33.5058 13.6725 33.3825 13.7875 33.2275 13.8725C33.0742 13.9575 32.9042 14 32.7175 14H31.3ZM31.91 13.4775H32.655C32.755 13.4775 32.845 13.4533 32.925 13.405C33.005 13.3567 33.0692 13.29 33.1175 13.205C33.1658 13.12 33.19 13.0233 33.19 12.915C33.19 12.8217 33.1658 12.7333 33.1175 12.65C33.0692 12.5667 33.005 12.4992 32.925 12.4475C32.845 12.3958 32.755 12.37 32.655 12.37H31.91V13.4775ZM31.91 11.855H32.505C32.6283 11.855 32.7333 11.8167 32.82 11.74C32.9083 11.6633 32.9525 11.5617 32.9525 11.435C32.9525 11.3 32.9083 11.1983 32.82 11.13C32.7333 11.06 32.6283 11.025 32.505 11.025H31.91V11.855ZM35.2027 14.065C34.9727 14.065 34.7627 14.0058 34.5727 13.8875C34.3844 13.7692 34.2336 13.61 34.1202 13.41C34.0086 13.21 33.9527 12.9892 33.9527 12.7475C33.9527 12.5658 33.9852 12.3958 34.0502 12.2375C34.1152 12.0775 34.2044 11.9375 34.3177 11.8175C34.4327 11.6958 34.5661 11.6008 34.7177 11.5325C34.8694 11.4642 35.0311 11.43 35.2027 11.43C35.3977 11.43 35.5761 11.4717 35.7377 11.555C35.9011 11.6367 36.0394 11.7492 36.1527 11.8925C36.2661 12.0358 36.3486 12.1992 36.4002 12.3825C36.4519 12.5658 36.4636 12.7575 36.4352 12.9575H34.6077C34.6311 13.0508 34.6694 13.135 34.7227 13.21C34.7761 13.2833 34.8436 13.3425 34.9252 13.3875C35.0069 13.4308 35.0994 13.4533 35.2027 13.455C35.3094 13.4567 35.4061 13.4317 35.4927 13.38C35.5811 13.3267 35.6544 13.255 35.7127 13.165L36.3352 13.31C36.2336 13.5317 36.0819 13.7133 35.8802 13.855C35.6786 13.995 35.4527 14.065 35.2027 14.065ZM34.5877 12.5H35.8177C35.7994 12.4 35.7602 12.31 35.7002 12.23C35.6419 12.1483 35.5694 12.0833 35.4827 12.035C35.3961 11.9867 35.3027 11.9625 35.2027 11.9625C35.1027 11.9625 35.0102 11.9867 34.9252 12.035C34.8402 12.0817 34.7677 12.1458 34.7077 12.2275C34.6494 12.3075 34.6094 12.3983 34.5877 12.5ZM38.182 12.11H37.697V14H37.087V12.11H36.717V11.5H37.087V10.715H37.697V11.5H38.182V12.11Z" fill="white"/>
<defs>
<linearGradient id="paint0_linear_945_14982" x1="-0.460358" y1="11.6138" x2="15.2112" y2="18.0695" gradientUnits="userSpaceOnUse">
<stop stop-color="white"/>
<stop stop-color="white"/>
<stop offset="0.0078125" stop-color="#05457B"/>
<stop offset="0.015625" stop-color="#05467C"/>
<stop offset="0.0234375" stop-color="#05467D"/>
<stop offset="0.03125" stop-color="#05477E"/>
<stop offset="0.0390625" stop-color="#05487E"/>
<stop offset="0.046875" stop-color="#05497F"/>
<stop offset="0.0546875" stop-color="#054980"/>
<stop offset="0.0625" stop-color="#054A81"/>
<stop offset="0.0703125" stop-color="#054B82"/>
<stop offset="0.078125" stop-color="#054B82"/>
<stop offset="0.0859375" stop-color="#054C83"/>
<stop offset="0.09375" stop-color="#054D84"/>
<stop offset="0.101562" stop-color="#054D85"/>
<stop offset="0.109375" stop-color="#054E86"/>
<stop offset="0.117187" stop-color="#054F86"/>
<stop offset="0.125" stop-color="#054F87"/>
<stop offset="0.132813" stop-color="#055088"/>
<stop offset="0.140625" stop-color="#055189"/>
<stop offset="0.148438" stop-color="#05518A"/>
<stop offset="0.15625" stop-color="#05528A"/>
<stop offset="0.164062" stop-color="#05538B"/>
<stop offset="0.171875" stop-color="#05538C"/>
<stop offset="0.179688" stop-color="#05548D"/>
<stop offset="0.1875" stop-color="#05558E"/>
<stop offset="0.191059" stop-color="#05558E"/>
<stop offset="0.195312" stop-color="#05568F"/>
<stop offset="0.203125" stop-color="#05568F"/>
<stop offset="0.210938" stop-color="#055790"/>
<stop offset="0.21875" stop-color="#055791"/>
<stop offset="0.226562" stop-color="#055892"/>
<stop offset="0.234375" stop-color="#055992"/>
<stop offset="0.242188" stop-color="#045993"/>
<stop offset="0.25" stop-color="#045A94"/>
<stop offset="0.257812" stop-color="#045B95"/>
<stop offset="0.265625" stop-color="#045B96"/>
<stop offset="0.273438" stop-color="#045C96"/>
<stop offset="0.28125" stop-color="#045D97"/>
<stop offset="0.289063" stop-color="white"/>
<stop offset="0.296875" stop-color="#045E99"/>
<stop offset="0.304688" stop-color="#045F99"/>
<stop offset="0.3125" stop-color="#045F9A"/>
<stop offset="0.320313" stop-color="#04609B"/>
<stop offset="0.328125" stop-color="#04619C"/>
<stop offset="0.335938" stop-color="#04619D"/>
<stop offset="0.34365" stop-color="white"/>
<stop offset="0.34375" stop-color="#04629D"/>
<stop offset="0.351562" stop-color="#04639E"/>
<stop offset="0.359375" stop-color="#04639F"/>
<stop offset="0.367188" stop-color="#0464A0"/>
<stop offset="0.375" stop-color="#0465A1"/>
<stop offset="0.382812" stop-color="#0466A1"/>
<stop offset="0.390625" stop-color="#0466A2"/>
<stop offset="0.398438" stop-color="#0467A3"/>
<stop offset="0.40625" stop-color="#0468A4"/>
<stop offset="0.414062" stop-color="#0468A5"/>
<stop offset="0.421875" stop-color="#0469A5"/>
<stop offset="0.429688" stop-color="#046AA6"/>
<stop offset="0.4375" stop-color="#046AA7"/>
<stop offset="0.445312" stop-color="#046BA8"/>
<stop offset="0.453125" stop-color="#046CA9"/>
<stop offset="0.460937" stop-color="#046CA9"/>
<stop offset="0.46875" stop-color="#046DAA"/>
<stop offset="0.476562" stop-color="#046EAB"/>
<stop offset="0.484375" stop-color="#046EAC"/>
<stop offset="0.492188" stop-color="#046FAD"/>
<stop offset="0.5" stop-color="#0470AD"/>
<stop offset="0.507812" stop-color="#0470AE"/>
<stop offset="0.515625" stop-color="#0471AF"/>
<stop offset="0.523438" stop-color="#0472B0"/>
<stop offset="0.53125" stop-color="#0472B1"/>
<stop offset="0.539063" stop-color="#0473B1"/>
<stop offset="0.546875" stop-color="#0474B2"/>
<stop offset="0.554687" stop-color="#0474B3"/>
<stop offset="0.5625" stop-color="#0475B4"/>
<stop offset="0.570312" stop-color="#0476B5"/>
<stop offset="0.578125" stop-color="#0476B5"/>
<stop offset="0.59375" stop-color="#0478B7"/>
<stop offset="0.601562" stop-color="#0478B8"/>
<stop offset="0.609375" stop-color="#0479B8"/>
<stop offset="0.617187" stop-color="#047AB9"/>
<stop offset="0.625" stop-color="#047ABA"/>
<stop offset="0.632812" stop-color="#047BBB"/>
<stop offset="0.640625" stop-color="#047CBC"/>
<stop offset="0.648437" stop-color="white"/>
<stop offset="0.664062" stop-color="#047EBE"/>
<stop offset="0.671875" stop-color="#047EBF"/>
<stop offset="0.679688" stop-color="#047FC0"/>
<stop offset="0.6875" stop-color="white"/>
<stop offset="0.695312" stop-color="#0480C1"/>
<stop offset="0.703125" stop-color="#0481C2"/>
<stop offset="0.710937" stop-color="#0482C3"/>
<stop offset="0.71875" stop-color="#0483C4"/>
<stop offset="0.726562" stop-color="#0483C4"/>
<stop offset="0.734375" stop-color="#0484C5"/>
<stop offset="0.742187" stop-color="#0485C6"/>
<stop offset="0.75" stop-color="#0485C7"/>
<stop offset="0.757812" stop-color="#0386C8"/>
<stop offset="0.765625" stop-color="#0387C8"/>
<stop offset="0.773437" stop-color="#0387C9"/>
<stop offset="0.78125" stop-color="#0388CA"/>
<stop offset="0.789062" stop-color="#0389CB"/>
<stop offset="0.796875" stop-color="#0389CC"/>
<stop offset="0.804688" stop-color="#038ACC"/>
<stop offset="0.808941" stop-color="#038BCD"/>
<stop offset="0.8125" stop-color="#038BCE"/>
<stop offset="0.820312" stop-color="#038BCE"/>
<stop offset="0.828125" stop-color="#038CCF"/>
<stop offset="0.835938" stop-color="#038DD0"/>
<stop offset="0.84375" stop-color="#038DD0"/>
<stop offset="0.851562" stop-color="#038ED1"/>
<stop offset="0.859375" stop-color="#038FD2"/>
<stop offset="0.867187" stop-color="#038FD3"/>
<stop offset="0.875" stop-color="#0390D4"/>
<stop offset="0.882812" stop-color="#0391D4"/>
<stop offset="0.890625" stop-color="#0391D5"/>
<stop offset="0.898437" stop-color="#0392D6"/>
<stop offset="0.90625" stop-color="#0393D7"/>
<stop offset="0.914062" stop-color="#0393D7"/>
<stop offset="0.921875" stop-color="#0394D8"/>
<stop offset="0.929688" stop-color="#0395D9"/>
<stop offset="0.9375" stop-color="#0395DA"/>
<stop offset="0.945312" stop-color="#0396DB"/>
<stop offset="0.953125" stop-color="#0397DB"/>
<stop offset="0.960938" stop-color="#0397DC"/>
<stop offset="0.96875" stop-color="#0398DD"/>
<stop offset="0.9999" stop-color="#0477B6"/>
<stop offset="1" stop-color="#0399DE"/>
<stop offset="1" stop-color="white"/>
</linearGradient>
</defs>
</svg>
