<svg width="49" height="49" viewBox="0 0 49 49" fill="none" xmlns="http://www.w3.org/2000/svg">
<circle cx="24.75" cy="24.2968" r="24" fill="#ECEAF8"/>
<path d="M24.7494 36.4089C31.4283 36.4089 36.8621 30.9752 36.8621 24.2963C36.8621 17.6173 31.4283 12.1836 24.7494 12.1836C18.0705 12.1836 12.6367 17.6173 12.6367 24.2963C12.6367 30.9752 18.0705 36.4089 24.7494 36.4089ZM28.9804 20.6625C29.2219 20.6563 29.4622 20.6985 29.6871 20.7867C29.912 20.8749 30.117 21.0072 30.2899 21.1759C30.4629 21.3445 30.6003 21.5461 30.6942 21.7688C30.788 21.9914 30.8363 22.2305 30.8362 22.4721C30.8361 22.7137 30.7877 22.9528 30.6937 23.1754C30.5997 23.3979 30.4621 23.5994 30.2891 23.768C30.116 23.9365 29.9109 24.0687 29.6859 24.1567C29.461 24.2448 29.2206 24.2869 28.9791 24.2805C28.5075 24.2682 28.0593 24.0721 27.7301 23.734C27.4009 23.396 27.2168 22.9427 27.2169 22.4709C27.2171 21.9991 27.4015 21.5459 27.7309 21.2081C28.0603 20.8703 28.5087 20.6745 28.9804 20.6625ZM23.7707 29.0432C24.4167 29.1728 25.0821 29.1728 25.7281 29.0432C26.0345 28.9802 26.3398 28.8846 26.6365 28.761C26.92 28.6399 27.1986 28.4897 27.459 28.3153C27.7109 28.1433 27.952 27.9446 28.1749 27.7229C28.3965 27.5025 28.5952 27.2615 28.7672 27.0059L30.7754 28.3589C30.2533 29.1327 29.5876 29.7992 28.8144 30.3223C28.0266 30.8539 27.1423 31.2259 26.2114 31.4173C25.2463 31.6112 24.2523 31.6108 23.2874 31.4161C22.3562 31.2275 21.4718 30.8557 20.6856 30.3223C19.9124 29.7979 19.246 29.1312 18.7221 28.3576L20.7304 27.0047C20.9036 27.2602 21.1023 27.5013 21.3215 27.7193C21.9903 28.3914 22.8421 28.8518 23.7707 29.0432ZM20.51 20.6625C20.7486 20.6625 20.985 20.7096 21.2054 20.801C21.4259 20.8925 21.6262 21.0264 21.795 21.1952C21.9637 21.3641 22.0975 21.5645 22.1887 21.785C22.28 22.0055 22.3269 22.2419 22.3269 22.4806C22.3268 22.7193 22.2797 22.9556 22.1883 23.1761C22.0969 23.3965 21.9629 23.5969 21.7941 23.7656C21.6253 23.9343 21.4249 24.0681 21.2043 24.1594C20.9838 24.2506 20.7474 24.2976 20.5087 24.2975C20.0267 24.2973 19.5645 24.1057 19.2238 23.7647C18.883 23.4238 18.6917 22.9614 18.6918 22.4794C18.692 21.9973 18.8836 21.5351 19.2246 21.1944C19.5656 20.8536 20.0279 20.6623 20.51 20.6625Z" fill="#003E79"/>
</svg>
