<svg width="24" height="24" viewBox="0 0 24 24" fill="none" xmlns="http://www.w3.org/2000/svg">
<path fill-rule="evenodd" clip-rule="evenodd" d="M4.34219 1.99805C3.07019 1.99805 1.99219 3.07605 1.99219 4.34805V8.84805C1.99219 10.12 3.07019 11.198 4.34219 11.198H8.84219C10.1142 11.198 11.1922 10.12 11.1922 8.84805V4.34805C11.1922 3.07605 10.1142 1.99805 8.84219 1.99805H4.34219ZM3.99219 4.34805C3.99219 4.18005 4.17419 3.99805 4.34219 3.99805H8.84219C9.01019 3.99805 9.19219 4.18005 9.19219 4.34805V8.84805C9.19219 9.01605 9.01019 9.19805 8.84219 9.19805H4.34219C4.17419 9.19805 3.99219 9.01605 3.99219 8.84805V4.34805ZM15.1422 1.99805C13.8702 1.99805 12.7922 3.07605 12.7922 4.34805V8.84805C12.7922 10.12 13.8702 11.198 15.1422 11.198H19.6422C20.9142 11.198 21.9922 10.12 21.9922 8.84805V4.34805C21.9922 3.07605 20.9142 1.99805 19.6422 1.99805H15.1422ZM14.7922 4.34805C14.7922 4.18005 14.9742 3.99805 15.1422 3.99805H19.6422C19.8102 3.99805 19.9922 4.18005 19.9922 4.34805V8.84805C19.9922 9.01605 19.8102 9.19805 19.6422 9.19805H15.1422C14.9742 9.19805 14.7922 9.01605 14.7922 8.84805V4.34805ZM1.99219 15.148C1.99219 13.876 3.07019 12.798 4.34219 12.798H8.84219C10.1142 12.798 11.1922 13.876 11.1922 15.148V19.648C11.1922 20.92 10.1142 21.998 8.84219 21.998H4.34219C3.07019 21.998 1.99219 20.92 1.99219 19.648V15.148ZM4.34219 14.798C4.17419 14.798 3.99219 14.98 3.99219 15.148V19.648C3.99219 19.816 4.17419 19.998 4.34219 19.998H8.84219C9.01019 19.998 9.19219 19.816 9.19219 19.648V15.148C9.19219 14.98 9.01019 14.798 8.84219 14.798H4.34219ZM15.1422 12.798C13.8702 12.798 12.7922 13.876 12.7922 15.148V19.648C12.7922 20.92 13.8702 21.998 15.1422 21.998H19.6422C20.9142 21.998 21.9922 20.92 21.9922 19.648V15.148C21.9922 13.876 20.9142 12.798 19.6422 12.798H15.1422ZM14.7922 15.148C14.7922 14.98 14.9742 14.798 15.1422 14.798H19.6422C19.8102 14.798 19.9922 14.98 19.9922 15.148V19.648C19.9922 19.816 19.8102 19.998 19.6422 19.998H15.1422C14.9742 19.998 14.7922 19.816 14.7922 19.648V15.148Z" fill="black"/>
</svg>
