<svg width="67" height="37" viewBox="0 0 67 37" fill="none" xmlns="http://www.w3.org/2000/svg">
<rect x="0.5" y="1" width="66" height="35" rx="7.5" stroke="#0E093C"/>
<path d="M16.888 21.5617H12.6875" stroke="#0E093C" stroke-width="1.5" stroke-linecap="round" stroke-linejoin="round"/>
<path d="M18.7617 15.0998H22.9622" stroke="#0E093C" stroke-width="1.5" stroke-linecap="round" stroke-linejoin="round"/>
<path fill-rule="evenodd" clip-rule="evenodd" d="M15.8188 15.0642C15.8188 14.2004 15.1134 13.5 14.2434 13.5C13.3734 13.5 12.668 14.2004 12.668 15.0642C12.668 15.9279 13.3734 16.6283 14.2434 16.6283C15.1134 16.6283 15.8188 15.9279 15.8188 15.0642Z" stroke="#0E093C" stroke-width="1.5" stroke-linecap="round" stroke-linejoin="round"/>
<path fill-rule="evenodd" clip-rule="evenodd" d="M23.3345 21.5358C23.3345 20.6721 22.6296 19.9717 21.7596 19.9717C20.889 19.9717 20.1836 20.6721 20.1836 21.5358C20.1836 22.3996 20.889 23.1 21.7596 23.1C22.6296 23.1 23.3345 22.3996 23.3345 21.5358Z" stroke="#0E093C" stroke-width="1.5" stroke-linecap="round" stroke-linejoin="round"/>
<path d="M33.8513 22.5V14.1H38.7653V14.94H34.6913V17.58H38.1893V18.42H34.6913V22.5H33.8513ZM39.0253 16.5H39.8653V22.5H39.0253V16.5ZM39.4513 15.45C39.3153 15.45 39.1993 15.406 39.1033 15.318C39.0113 15.226 38.9653 15.112 38.9653 14.976C38.9653 14.84 39.0113 14.728 39.1033 14.64C39.1993 14.548 39.3153 14.502 39.4513 14.502C39.5833 14.502 39.6953 14.548 39.7873 14.64C39.8833 14.728 39.9313 14.84 39.9313 14.976C39.9313 15.112 39.8853 15.226 39.7933 15.318C39.7013 15.406 39.5873 15.45 39.4513 15.45ZM41.1173 22.5V13.5H41.9573V22.5H41.1173ZM46.2285 17.34H44.7945L44.7885 22.5H43.9485L43.9545 17.34H42.8685V16.5H43.9545L43.9485 14.616H44.7885L44.7945 16.5H46.2285V17.34ZM49.5352 22.656C48.9832 22.656 48.4792 22.514 48.0232 22.23C47.5712 21.946 47.2092 21.566 46.9372 21.09C46.6692 20.61 46.5352 20.08 46.5352 19.5C46.5352 19.06 46.6132 18.65 46.7692 18.27C46.9252 17.886 47.1392 17.55 47.4112 17.262C47.6872 16.97 48.0072 16.742 48.3712 16.578C48.7352 16.414 49.1232 16.332 49.5352 16.332C49.9792 16.332 50.3872 16.42 50.7592 16.596C51.1352 16.772 51.4572 17.018 51.7252 17.334C51.9972 17.65 52.2012 18.02 52.3372 18.444C52.4772 18.868 52.5352 19.326 52.5112 19.818H47.4232C47.4712 20.198 47.5912 20.538 47.7832 20.838C47.9792 21.138 48.2272 21.376 48.5272 21.552C48.8312 21.724 49.1672 21.812 49.5352 21.816C49.9352 21.816 50.2952 21.712 50.6152 21.504C50.9392 21.296 51.1992 21.01 51.3952 20.646L52.2472 20.844C52.0072 21.376 51.6452 21.812 51.1612 22.152C50.6772 22.488 50.1352 22.656 49.5352 22.656ZM47.3992 19.14H51.6652C51.6372 18.768 51.5232 18.428 51.3232 18.12C51.1272 17.808 50.8732 17.56 50.5612 17.376C50.2492 17.188 49.9072 17.094 49.5352 17.094C49.1632 17.094 48.8232 17.186 48.5152 17.37C48.2072 17.55 47.9552 17.796 47.7592 18.108C47.5632 18.416 47.4432 18.76 47.3992 19.14ZM53.2997 22.5V16.5H54.1397V17.328C54.3517 17.024 54.6277 16.782 54.9677 16.602C55.3077 16.422 55.6777 16.332 56.0777 16.332C56.3097 16.332 56.5337 16.362 56.7497 16.422L56.4077 17.256C56.2397 17.204 56.0757 17.178 55.9157 17.178C55.5917 17.178 55.2937 17.258 55.0217 17.418C54.7537 17.578 54.5397 17.792 54.3797 18.06C54.2197 18.328 54.1397 18.626 54.1397 18.954V22.5H53.2997Z" fill="#969696"/>
</svg>
