<svg width="77" height="47" viewBox="0 0 77 47" fill="none" xmlns="http://www.w3.org/2000/svg">
<g filter="url(#filter0_d_2006_23972)">
<rect x="4.5" y="0.5" width="68" height="38" rx="8.5" fill="#F8F8F8" stroke="#0E093C"/>
<path d="M19.888 22.0627H15.6875" stroke="#0E093C" stroke-width="1.5" stroke-linecap="round" stroke-linejoin="round"/>
<path d="M21.7617 15.5998H25.9622" stroke="#0E093C" stroke-width="1.5" stroke-linecap="round" stroke-linejoin="round"/>
<path fill-rule="evenodd" clip-rule="evenodd" d="M18.8188 15.5642C18.8188 14.7004 18.1134 14 17.2434 14C16.3734 14 15.668 14.7004 15.668 15.5642C15.668 16.4279 16.3734 17.1283 17.2434 17.1283C18.1134 17.1283 18.8188 16.4279 18.8188 15.5642Z" stroke="#0E093C" stroke-width="1.5" stroke-linecap="round" stroke-linejoin="round"/>
<path fill-rule="evenodd" clip-rule="evenodd" d="M26.3345 22.0349C26.3345 21.1711 25.6296 20.4707 24.7596 20.4707C23.889 20.4707 23.1836 21.1711 23.1836 22.0349C23.1836 22.8986 23.889 23.599 24.7596 23.599C25.6296 23.599 26.3345 22.8986 26.3345 22.0349Z" stroke="#0E093C" stroke-width="1.5" stroke-linecap="round" stroke-linejoin="round"/>
<path d="M36.8513 23V14.6H41.7653V15.44H37.6913V18.08H41.1893V18.92H37.6913V23H36.8513ZM42.0253 17H42.8653V23H42.0253V17ZM42.4513 15.95C42.3153 15.95 42.1993 15.906 42.1033 15.818C42.0113 15.726 41.9653 15.612 41.9653 15.476C41.9653 15.34 42.0113 15.228 42.1033 15.14C42.1993 15.048 42.3153 15.002 42.4513 15.002C42.5833 15.002 42.6953 15.048 42.7873 15.14C42.8833 15.228 42.9313 15.34 42.9313 15.476C42.9313 15.612 42.8853 15.726 42.7933 15.818C42.7013 15.906 42.5873 15.95 42.4513 15.95ZM44.1173 23V14H44.9573V23H44.1173ZM49.2285 17.84H47.7945L47.7885 23H46.9485L46.9545 17.84H45.8685V17H46.9545L46.9485 15.116H47.7885L47.7945 17H49.2285V17.84ZM52.5352 23.156C51.9832 23.156 51.4792 23.014 51.0232 22.73C50.5712 22.446 50.2092 22.066 49.9372 21.59C49.6692 21.11 49.5352 20.58 49.5352 20C49.5352 19.56 49.6132 19.15 49.7692 18.77C49.9252 18.386 50.1392 18.05 50.4112 17.762C50.6872 17.47 51.0072 17.242 51.3712 17.078C51.7352 16.914 52.1232 16.832 52.5352 16.832C52.9792 16.832 53.3872 16.92 53.7592 17.096C54.1352 17.272 54.4572 17.518 54.7252 17.834C54.9972 18.15 55.2012 18.52 55.3372 18.944C55.4772 19.368 55.5352 19.826 55.5112 20.318H50.4232C50.4712 20.698 50.5912 21.038 50.7832 21.338C50.9792 21.638 51.2272 21.876 51.5272 22.052C51.8312 22.224 52.1672 22.312 52.5352 22.316C52.9352 22.316 53.2952 22.212 53.6152 22.004C53.9392 21.796 54.1992 21.51 54.3952 21.146L55.2472 21.344C55.0072 21.876 54.6452 22.312 54.1612 22.652C53.6772 22.988 53.1352 23.156 52.5352 23.156ZM50.3992 19.64H54.6652C54.6372 19.268 54.5232 18.928 54.3232 18.62C54.1272 18.308 53.8732 18.06 53.5612 17.876C53.2492 17.688 52.9072 17.594 52.5352 17.594C52.1632 17.594 51.8232 17.686 51.5152 17.87C51.2072 18.05 50.9552 18.296 50.7592 18.608C50.5632 18.916 50.4432 19.26 50.3992 19.64ZM56.2997 23V17H57.1397V17.828C57.3517 17.524 57.6277 17.282 57.9677 17.102C58.3077 16.922 58.6777 16.832 59.0777 16.832C59.3097 16.832 59.5337 16.862 59.7497 16.922L59.4077 17.756C59.2397 17.704 59.0757 17.678 58.9157 17.678C58.5917 17.678 58.2937 17.758 58.0217 17.918C57.7537 18.078 57.5397 18.292 57.3797 18.56C57.2197 18.828 57.1397 19.126 57.1397 19.454V23H56.2997Z" fill="#969696"/>
</g>
<defs>
<filter id="filter0_d_2006_23972" x="0" y="0" width="77" height="47" filterUnits="userSpaceOnUse" color-interpolation-filters="sRGB">
<feFlood flood-opacity="0" result="BackgroundImageFix"/>
<feColorMatrix in="SourceAlpha" type="matrix" values="0 0 0 0 0 0 0 0 0 0 0 0 0 0 0 0 0 0 127 0" result="hardAlpha"/>
<feOffset dy="4"/>
<feGaussianBlur stdDeviation="2"/>
<feComposite in2="hardAlpha" operator="out"/>
<feColorMatrix type="matrix" values="0 0 0 0 0 0 0 0 0 0 0 0 0 0 0 0 0 0 0.25 0"/>
<feBlend mode="normal" in2="BackgroundImageFix" result="effect1_dropShadow_2006_23972"/>
<feBlend mode="normal" in="SourceGraphic" in2="effect1_dropShadow_2006_23972" result="shape"/>
</filter>
</defs>
</svg>
