<svg width="69" height="33" viewBox="0 0 69 33" fill="none" xmlns="http://www.w3.org/2000/svg">
<rect x="0.5" y="0.5" width="68" height="32" rx="8.5" fill="#F8F8F8" stroke="#003E79"/>
<path d="M15.8868 19.0617H11.6863" stroke="#003E79" stroke-width="1.5" stroke-linecap="round" stroke-linejoin="round"/>
<path d="M17.7605 12.5998H21.961" stroke="#003E79" stroke-width="1.5" stroke-linecap="round" stroke-linejoin="round"/>
<path fill-rule="evenodd" clip-rule="evenodd" d="M14.8176 12.5642C14.8176 11.7004 14.1122 11 13.2422 11C12.3722 11 11.6667 11.7004 11.6667 12.5642C11.6667 13.4279 12.3722 14.1283 13.2422 14.1283C14.1122 14.1283 14.8176 13.4279 14.8176 12.5642Z" stroke="#003E79" stroke-width="1.5" stroke-linecap="round" stroke-linejoin="round"/>
<path fill-rule="evenodd" clip-rule="evenodd" d="M22.3335 19.0358C22.3335 18.1721 21.6286 17.4717 20.7586 17.4717C19.8881 17.4717 19.1826 18.1721 19.1826 19.0358C19.1826 19.8996 19.8881 20.6 20.7586 20.6C21.6286 20.6 22.3335 19.8996 22.3335 19.0358Z" stroke="#003E79" stroke-width="1.5" stroke-linecap="round" stroke-linejoin="round"/>
<path d="M32.8513 20V11.6H37.7653V12.44H33.6913V15.08H37.1893V15.92H33.6913V20H32.8513ZM38.0253 14H38.8653V20H38.0253V14ZM38.4513 12.95C38.3153 12.95 38.1993 12.906 38.1033 12.818C38.0113 12.726 37.9653 12.612 37.9653 12.476C37.9653 12.34 38.0113 12.228 38.1033 12.14C38.1993 12.048 38.3153 12.002 38.4513 12.002C38.5833 12.002 38.6953 12.048 38.7873 12.14C38.8833 12.228 38.9313 12.34 38.9313 12.476C38.9313 12.612 38.8853 12.726 38.7933 12.818C38.7013 12.906 38.5873 12.95 38.4513 12.95ZM40.1173 20V11H40.9573V20H40.1173ZM45.2285 14.84H43.7945L43.7885 20H42.9485L42.9545 14.84H41.8685V14H42.9545L42.9485 12.116H43.7885L43.7945 14H45.2285V14.84ZM48.5352 20.156C47.9832 20.156 47.4792 20.014 47.0232 19.73C46.5712 19.446 46.2092 19.066 45.9372 18.59C45.6692 18.11 45.5352 17.58 45.5352 17C45.5352 16.56 45.6132 16.15 45.7692 15.77C45.9252 15.386 46.1392 15.05 46.4112 14.762C46.6872 14.47 47.0072 14.242 47.3712 14.078C47.7352 13.914 48.1232 13.832 48.5352 13.832C48.9792 13.832 49.3872 13.92 49.7592 14.096C50.1352 14.272 50.4572 14.518 50.7252 14.834C50.9972 15.15 51.2012 15.52 51.3372 15.944C51.4772 16.368 51.5352 16.826 51.5112 17.318H46.4232C46.4712 17.698 46.5912 18.038 46.7832 18.338C46.9792 18.638 47.2272 18.876 47.5272 19.052C47.8312 19.224 48.1672 19.312 48.5352 19.316C48.9352 19.316 49.2952 19.212 49.6152 19.004C49.9392 18.796 50.1992 18.51 50.3952 18.146L51.2472 18.344C51.0072 18.876 50.6452 19.312 50.1612 19.652C49.6772 19.988 49.1352 20.156 48.5352 20.156ZM46.3992 16.64H50.6652C50.6372 16.268 50.5232 15.928 50.3232 15.62C50.1272 15.308 49.8732 15.06 49.5612 14.876C49.2492 14.688 48.9072 14.594 48.5352 14.594C48.1632 14.594 47.8232 14.686 47.5152 14.87C47.2072 15.05 46.9552 15.296 46.7592 15.608C46.5632 15.916 46.4432 16.26 46.3992 16.64ZM52.2997 20V14H53.1397V14.828C53.3517 14.524 53.6277 14.282 53.9677 14.102C54.3077 13.922 54.6777 13.832 55.0777 13.832C55.3097 13.832 55.5337 13.862 55.7497 13.922L55.4077 14.756C55.2397 14.704 55.0757 14.678 54.9157 14.678C54.5917 14.678 54.2937 14.758 54.0217 14.918C53.7537 15.078 53.5397 15.292 53.3797 15.56C53.2197 15.828 53.1397 16.126 53.1397 16.454V20H52.2997Z" fill="#969696"/>
</svg>
