<svg width="23" height="23" viewBox="0 0 23 23" fill="none" xmlns="http://www.w3.org/2000/svg">
<circle cx="11.2" cy="11.2" r="11.2" fill="#E4F7FF"/>
<path opacity="0.4" d="M16.8332 13.2996C16.8332 14.9271 15.5265 16.2455 13.899 16.2513H13.8932H8.11234C6.49067 16.2513 5.1665 14.9388 5.1665 13.3113V13.3055C5.1665 13.3055 5.17 10.7236 5.17467 9.42514C5.17525 9.1813 5.45525 9.0448 5.646 9.19647C7.032 10.2961 9.51059 12.301 9.5415 12.3272C9.95567 12.6591 10.4807 12.8464 11.0173 12.8464C11.554 12.8464 12.079 12.6591 12.4932 12.3208C12.5241 12.3004 14.9473 10.3556 16.3543 9.23789C16.5456 9.08564 16.8268 9.22214 16.8273 9.46539C16.8332 10.754 16.8332 13.2996 16.8332 13.2996Z" fill="#003E79"/>
<path d="M16.5275 7.30983C16.0224 6.35783 15.0283 5.75 13.934 5.75H8.11235C7.01802 5.75 6.02402 6.35783 5.51885 7.30983C5.40568 7.52275 5.45935 7.78817 5.64777 7.93867L9.97902 11.4031C10.2824 11.6481 10.6499 11.77 11.0174 11.77C11.0197 11.77 11.0214 11.77 11.0232 11.77C11.0249 11.77 11.0273 11.77 11.029 11.77C11.3965 11.77 11.764 11.6481 12.0674 11.4031L16.3986 7.93867C16.587 7.78817 16.6407 7.52275 16.5275 7.30983Z" fill="#003E79"/>
</svg>
