<svg width="29" height="28" viewBox="0 0 29 28" fill="none" xmlns="http://www.w3.org/2000/svg">
<circle cx="14.2" cy="14.2" r="11.2" fill="#E4F7FF"/>
<circle cx="14" cy="15" r="6" fill="#003E79"/>
<circle cx="14" cy="11" r="3" fill="#89ADC9"/>
<path fill-rule="evenodd" clip-rule="evenodd" d="M22 14C22 16.1217 21.1571 18.1566 19.6569 19.6569C18.1566 21.1571 16.1217 22 14 22C11.8783 22 9.84344 21.1571 8.34315 19.6569C6.84285 18.1566 6 16.1217 6 14C6 11.8783 6.84285 9.84344 8.34315 8.34315C9.84344 6.84285 11.8783 6 14 6C16.1217 6 18.1566 6.84285 19.6569 8.34315C21.1571 9.84344 22 11.8783 22 14ZM16 11C16 11.5304 15.7893 12.0391 15.4142 12.4142C15.0391 12.7893 14.5304 13 14 13C13.4696 13 12.9609 12.7893 12.5858 12.4142C12.2107 12.0391 12 11.5304 12 11C12 10.4696 12.2107 9.96086 12.5858 9.58579C12.9609 9.21071 13.4696 9 14 9C14.5304 9 15.0391 9.21071 15.4142 9.58579C15.7893 9.96086 16 10.4696 16 11ZM14 15C13.0426 14.9998 12.1053 15.2745 11.2994 15.7914C10.4936 16.3083 9.85304 17.0457 9.454 17.916C10.0167 18.5706 10.7143 19.0958 11.4989 19.4555C12.2836 19.8152 13.1368 20.0009 14 20C14.8632 20.0009 15.7164 19.8152 16.5011 19.4555C17.2857 19.0958 17.9833 18.5706 18.546 17.916C18.147 17.0457 17.5064 16.3083 16.7006 15.7914C15.8947 15.2745 14.9574 14.9998 14 15Z" fill="#E4F7FF"/>
</svg>
